<?xml version="1.0" encoding="utf-8"?>
<!-- Generator: Adobe Illustrator 22.0.1, SVG Export Plug-In . SVG Version: 6.00 Build 0)  -->
<svg version="1.1" id="Layer_1" xmlns="http://www.w3.org/2000/svg" xmlns:xlink="http://www.w3.org/1999/xlink" x="0px" y="0px"
	 viewBox="0 0 267.5 268" enable-background="new 0 0 267.5 268" xml:space="preserve">
<g>
	<path fill="#DA291C" d="M216.1,223.7H50.4c-4,0-7.3-3.3-7.3-7.3V50.2c0-4,3.3-7.3,7.3-7.3h165.7c4,0,7.3,3.3,7.3,7.3v166.2
		C223.4,220.5,220.1,223.7,216.1,223.7z M50.4,45.4c-2.6,0-4.7,2.1-4.7,4.8v166.2c0,2.6,2.1,4.8,4.7,4.8h165.7
		c2.6,0,4.7-2.1,4.7-4.8V50.2c0-2.6-2.1-4.8-4.7-4.8H50.4z"/>
	<path fill="#898D8D" d="M177,251c-1,0-2-0.2-2.9-0.6L19.9,183.7c-1.8-0.8-3.2-2.2-3.9-4c-0.7-1.8-0.7-3.8,0.1-5.6L82.8,19.9
		c1.2-2.7,3.8-4.4,6.7-4.4c1,0,2,0.2,2.9,0.6l154.2,66.7c1.8,0.8,3.2,2.2,3.9,4c0.7,1.8,0.7,3.8-0.1,5.6l-66.7,154.2
		C182.5,249.2,179.9,251,177,251z M89.5,18c-1.9,0-3.6,1.1-4.4,2.9L18.4,175.1c-0.5,1.2-0.5,2.4-0.1,3.6c0.5,1.2,1.4,2.1,2.5,2.6
		L175.1,248c2.3,1,5.2-0.2,6.2-2.5L248,91.4c0.5-1.2,0.5-2.4,0-3.6c-0.5-1.2-1.4-2.1-2.5-2.6L91.4,18.4C90.8,18.1,90.2,18,89.5,18z"
		/>
	<path fill="#898D8D" d="M133.3,259.3c-1.9,0-3.8-0.8-5.1-2.1L9.3,138.4c-2.8-2.8-2.8-7.5,0-10.3L128,9.3c2.7-2.8,7.6-2.8,10.3,0
		L257.2,128c1.4,1.4,2.1,3.2,2.1,5.2c0,2-0.8,3.8-2.1,5.2L138.4,257.2C137.1,258.5,135.2,259.3,133.3,259.3z M133.2,9.7
		c-1.3,0-2.5,0.5-3.3,1.4L11.1,129.9c-1.9,1.8-1.9,4.8,0,6.7l118.8,118.8c1.8,1.8,4.9,1.8,6.7,0l118.7-118.8
		c0.9-0.9,1.4-2.1,1.4-3.3c0-1.3-0.5-2.5-1.4-3.4L136.5,11.1C135.6,10.2,134.4,9.7,133.2,9.7z"/>
	<path fill="#898D8D" d="M89.2,250.8c-3,0-5.6-1.7-6.7-4.4L16.2,92c-0.8-1.8-0.8-3.8-0.1-5.6c0.7-1.8,2.1-3.2,3.9-4l154.4-66.3
		c0.9-0.4,1.9-0.6,2.9-0.6c2.9,0,5.6,1.8,6.7,4.4l66.3,154.4c0.8,1.8,0.8,3.8,0.1,5.6c-0.7,1.8-2.1,3.2-3.9,4L92.1,250.3
		C91.1,250.7,90.2,250.8,89.2,250.8z M177.3,18.1c-0.6,0-1.3,0.1-1.8,0.4L21,84.8c-1.2,0.5-2.1,1.4-2.5,2.6c-0.5,1.2-0.5,2.5,0,3.6
		l66.3,154.4c1,2.3,3.9,3.5,6.2,2.5l154.4-66.3c1.2-0.5,2.1-1.4,2.5-2.6c0.5-1.2,0.5-2.5,0-3.6L181.6,21
		C180.9,19.3,179.2,18.1,177.3,18.1z"/>
	<g>
		<g>
			<path fill="#DA291C" d="M148.2,110.6c-10,0-14.2,6.9-14.2,6.9h-0.1V93.2h-11.7V159h11.1v-5.9c0,0,4.3,7,14.1,7
				c12.5,0,21.7-9.7,21.7-24.8c0-10-3.8-17.9-10.3-21.9C155.8,111.6,152.2,110.6,148.2,110.6z M145.4,150.2
				c-7.9,0-11.8-7.2-11.8-14.6c0-10.5,5.7-14.9,11.9-14.9c7,0,11.8,5.8,11.8,14.8C157.2,144.9,151.9,150.2,145.4,150.2z"/>
			<path fill="#DA291C" d="M187.2,140.1v-19.2h11.5v-9.4h-11.5V96h-11.5v15.5h-6.4v9.4h6.1v20.8c0,15.9,14,17.8,20.6,17.8
				c2.2,0,3.6-0.3,3.6-0.3v-10.7C199.6,148.5,187.2,150.3,187.2,140.1z"/>
			<path fill="#DA291C" d="M84.5,93.2L61.3,159h12.3l4.6-12.8h25.1l4.5,12.8h12.3L97.1,93.2H84.5z M82.3,134.8l5.7-20
				c1.3-3.7,2.8-10.2,2.8-10.2h0.2c0,0,1.4,6.5,2.6,10.2l6.2,20H82.3z"/>
		</g>
		<g>
			<path fill="#DA291C" d="M88.2,174.1h2l4.2,9.9h-2.3l-0.9-2.2h-4.1l-0.9,2.2H84L88.2,174.1z M90.5,179.9l-1.3-3.2l-1.3,3.2H90.5z"
				/>
			<path fill="#DA291C" d="M95.8,182.6l1.3-1.5c0.9,0.7,1.8,1.2,2.9,1.2c0.9,0,1.4-0.4,1.4-0.9v0c0-0.5-0.3-0.8-2-1.2
				c-2-0.5-3.2-1.1-3.2-3v0c0-1.8,1.4-3,3.4-3c1.4,0,2.6,0.4,3.6,1.2l-1.1,1.6c-0.9-0.6-1.7-1-2.5-1c-0.8,0-1.3,0.4-1.3,0.9v0
				c0,0.6,0.4,0.9,2.1,1.3c2,0.5,3.1,1.2,3.1,2.9v0c0,1.9-1.5,3-3.6,3C98.5,184.1,97,183.6,95.8,182.6z"/>
			<path fill="#DA291C" d="M105.3,182.6l1.3-1.5c0.9,0.7,1.8,1.2,2.9,1.2c0.9,0,1.4-0.4,1.4-0.9v0c0-0.5-0.3-0.8-2-1.2
				c-2-0.5-3.2-1.1-3.2-3v0c0-1.8,1.4-3,3.4-3c1.4,0,2.6,0.4,3.6,1.2l-1.1,1.6c-0.9-0.6-1.7-1-2.5-1c-0.8,0-1.3,0.4-1.3,0.9v0
				c0,0.6,0.4,0.9,2.1,1.3c2,0.5,3.1,1.2,3.1,2.9v0c0,1.9-1.5,3-3.6,3C108,184.1,106.5,183.6,105.3,182.6z"/>
			<path fill="#DA291C" d="M115.2,179.1L115.2,179.1c0-2.8,2.2-5.1,5.2-5.1c3,0,5.2,2.3,5.2,5v0c0,2.8-2.2,5.1-5.2,5.1
				C117.4,184.2,115.2,181.9,115.2,179.1z M123.4,179.1L123.4,179.1c0-1.7-1.2-3.1-3-3.1c-1.7,0-2.9,1.4-2.9,3.1v0
				c0,1.7,1.2,3.1,3,3.1C122.2,182.2,123.4,180.8,123.4,179.1z"/>
			<path fill="#DA291C" d="M127.8,179.1L127.8,179.1c0-2.8,2.1-5.1,5.1-5.1c1.8,0,3,0.6,3.9,1.5l-1.4,1.6c-0.8-0.7-1.5-1.1-2.5-1.1
				c-1.7,0-2.8,1.4-2.8,3.1v0c0,1.7,1.2,3.1,2.8,3.1c1.1,0,1.8-0.4,2.6-1.1l1.4,1.4c-1,1.1-2.1,1.8-4,1.8
				C129.9,184.2,127.8,181.9,127.8,179.1z"/>
			<path fill="#DA291C" d="M139.4,174.2h2.2v9.8h-2.2V174.2z"/>
			<path fill="#DA291C" d="M148,174.1h2l4.2,9.9H152l-0.9-2.2h-4.1L146,184h-2.2L148,174.1z M150.3,179.9l-1.3-3.2l-1.3,3.2H150.3z"
				/>
			<path fill="#DA291C" d="M157.5,176.2h-3v-2h8.1v2h-3v7.8h-2.2V176.2z"/>
			<path fill="#DA291C" d="M164.9,174.2h7.4v1.9h-5.3v2h4.6v1.9h-4.6v2.1h5.3v1.9h-7.5V174.2z"/>
			<path fill="#DA291C" d="M174.3,182.6l1.3-1.5c0.9,0.7,1.8,1.2,2.9,1.2c0.9,0,1.4-0.4,1.4-0.9v0c0-0.5-0.3-0.8-2-1.2
				c-2-0.5-3.2-1.1-3.2-3v0c0-1.8,1.4-3,3.4-3c1.4,0,2.6,0.4,3.6,1.2l-1.1,1.6c-0.9-0.6-1.7-1-2.5-1c-0.8,0-1.3,0.4-1.3,0.9v0
				c0,0.6,0.4,0.9,2.1,1.3c2,0.5,3.1,1.2,3.1,2.9v0c0,1.9-1.5,3-3.6,3C177,184.1,175.5,183.6,174.3,182.6z"/>
		</g>
	</g>
</g>
</svg>
