<?xml version="1.0" encoding="utf-8"?>
<!-- Generator: Adobe Illustrator 22.1.0, SVG Export Plug-In . SVG Version: 6.00 Build 0)  -->
<svg version="1.1" id="Layer_1" xmlns="http://www.w3.org/2000/svg" xmlns:xlink="http://www.w3.org/1999/xlink" x="0px" y="0px"
	 viewBox="0 0 473 450" style="enable-background:new 0 0 473 450;" xml:space="preserve">
<style type="text/css">
	.st0{fill:none;stroke:#FFFFFF;stroke-width:0.5;stroke-miterlimit:2.6131;}
	.st1{fill:#FFFFFF;}
	.st2{clip-path:url(#SVGID_2_);}
	.st3{fill:#C9952B;}
	.st4{fill:#650E37;}
	.st5{fill:#ACCB77;}
	.st6{fill:#2B5A6B;}
	.st7{opacity:0.4;fill:#000002;enable-background:new    ;}
	.st8{clip-path:url(#SVGID_4_);}
	.st9{fill:#C7932C;}
	.st10{fill:#50082A;}
	.st11{fill:#A8C96F;}
	.st12{fill:#0E5365;}
	.st13{fill:#494941;}
	.st14{fill:#949597;}
</style>
<g>
	<rect x="-51" y="-66" class="st0" width="576" height="576"/>
	<g>
		<g>
			<path class="st1" d="M162.2,118.2L162.2,118.2c28.4,0,45.1-24.9,45.1-52.8c0-27.8-16.7-52.8-45.1-52.8s-45.1,24.9-45.1,52.8
				C117.1,93.2,133.9,118.2,162.2,118.2L162.2,118.2z M162.2,6.4c34.7,0,63.2,22.2,63.2,58.9s-28.5,58.9-63.2,58.9S99,102,99,65.3
				C99,28.7,127.6,6.4,162.2,6.4z"/>
			<g>
				<g>
					<defs>
						<path id="SVGID_1_" d="M162.2,118.2L162.2,118.2c28.4,0,45.1-24.9,45.1-52.8c0-27.8-16.7-52.8-45.1-52.8s-45.1,24.9-45.1,52.8
							C117.1,93.2,133.9,118.2,162.2,118.2L162.2,118.2z M162.2,6.4c34.7,0,63.2,22.2,63.2,58.9s-28.5,58.9-63.2,58.9
							S99,102,99,65.3C99,28.7,127.6,6.4,162.2,6.4z"/>
					</defs>
					<clipPath id="SVGID_2_">
						<use xlink:href="#SVGID_1_"  style="overflow:visible;"/>
					</clipPath>
					<g class="st2">
						<g>
							<rect x="95.5" y="-7.2" class="st3" width="65.3" height="66.6"/>
							<rect x="163.2" y="-7.2" class="st4" width="65.3" height="66.6"/>
							<rect x="163.2" y="61.8" class="st5" width="65.3" height="66.6"/>
							<rect x="95.5" y="61.8" class="st6" width="65.3" height="66.6"/>
						</g>
					</g>
				</g>
			</g>
			<path class="st7" d="M99.1,30.8c3,0,5.5,1.2,7.7,4.5l0.5-0.8c3.1,5,5,14.8,5,23.5c0,12.2-4.8,23.7-10.2,27.1l-0.2-0.5
				c-0.9,0.4-1.8,0.6-2.8,0.6c-0.5,0-0.9-0.1-1.4-0.2c6.6-1.4,11.8-13,11.8-27s-5.2-25.6-11.8-27C98.1,30.9,98.6,30.8,99.1,30.8z"/>
			<polygon class="st7" points="129.5,103.5 122.1,112.3 124.7,114 131.7,105.2 130.5,104 			"/>
			<path class="st1" d="M56.4,100.9L56.4,100.9c24.3,0,38.7-21.4,38.7-45.3S80.7,10.3,56.4,10.3c-17.8,0-30.3,11.5-35.7,27.1H5.2
				C12.7,16.8,32.9,5,56.4,5c29.8,0,54.3,19.1,54.3,50.6c0,27.3-18.4,45.3-42.7,49.6c12.6,4.4,24.6,9.8,34.6,9.8
				c12.6,0,18.8-5.3,26.4-14.7l2.5,2.3l0,0c-10.9,14.2-17,22.6-36.2,22.6c-21.7,0-37-21.1-58.8-21.1c-4.7,0-9.1,2-13.2,4.2l-2.2-2.6
				c6.7-4.3,12.9-6,20.8-6c2.5,0,5.1,0.2,7.6,0.6l0,0h0.1c0.5,0.1,0.9,0.1,1.4,0.2C52.7,100.8,54.5,100.9,56.4,100.9z"/>
			<g>
				<g>
					<defs>
						<path id="SVGID_3_" d="M56.4,100.9L56.4,100.9c24.3,0,38.7-21.4,38.7-45.3S80.7,10.3,56.4,10.3c-17.8,0-30.3,11.5-35.7,27.1
							H5.2C12.7,16.8,32.9,5,56.4,5c29.8,0,54.3,19.1,54.3,50.6c0,27.3-18.4,45.3-42.7,49.6c12.6,4.4,24.6,9.8,34.6,9.8
							c12.6,0,18.8-5.3,26.4-14.7l2.5,2.3l0,0c-10.9,14.2-17,22.6-36.2,22.6c-21.7,0-37-21.1-58.8-21.1c-4.7,0-9.1,2-13.2,4.2
							l-2.2-2.6c6.7-4.3,12.9-6,20.8-6c2.5,0,5.1,0.2,7.6,0.6l0,0h0.1c0.5,0.1,0.9,0.1,1.4,0.2C52.7,100.8,54.5,100.9,56.4,100.9z"
							/>
					</defs>
					<clipPath id="SVGID_4_">
						<use xlink:href="#SVGID_3_"  style="overflow:visible;"/>
					</clipPath>
					<g class="st8">
						<g>
							<rect x="2.2" y="-7.2" class="st3" width="65.3" height="66.6"/>
							<rect x="70" y="-7.2" class="st4" width="65.3" height="66.6"/>
							<rect x="70" y="61.8" class="st5" width="65.3" height="66.6"/>
							<rect x="2.2" y="61.8" class="st6" width="65.3" height="66.6"/>
						</g>
					</g>
				</g>
			</g>
		</g>
		<g>
			<rect x="5.2" y="152.3" class="st9" width="108.2" height="108.2"/>
			<rect x="117.3" y="152.3" class="st10" width="108.2" height="108.2"/>
		</g>
		<rect x="117.3" y="264.3" class="st11" width="108.2" height="108.2"/>
		<rect x="5.2" y="264.3" class="st12" width="108.2" height="108.2"/>
		<path class="st1" d="M114.9,158.8c47.8,0,87.1,30.6,87.1,81.3c0,50.6-39.3,81.3-87.1,81.3s-87.1-30.6-87.1-81.3
			C27.8,189.4,67.1,158.8,114.9,158.8L114.9,158.8z M218.3,329.7L218.3,329.7C200.9,352.6,191,366,160.1,366
			c-34.9,0-59.4-33.9-94.4-33.9c-7.5,0-14.8,2.8-21.4,6.4l-3.3-3.8c10.8-6.8,20.7-9.7,33.4-9.7c34.6,0,70.4,24.5,97.5,24.5
			c20.2,0,30.1-8.5,42.4-23.6L218.3,329.7L218.3,329.7z M114.9,312.8L114.9,312.8c39.1,0,62.2-34.4,62.2-72.8s-23.1-72.8-62.2-72.8
			S52.7,201.6,52.7,240S75.8,312.8,114.9,312.8z"/>
		<path class="st13" d="M317.4,250.9l11.6,14.7h-9.7l-8-10.1c-6.3,3.9-13.5,5.8-21.5,5.8c-11.6,0-21.4-4-29.4-11.9s-12-17.5-12-28.8
			c0-7.5,1.8-14.5,5.5-20.9c3.6-6.4,8.6-11.4,14.9-15.1c6.3-3.6,13.2-5.4,20.7-5.4c11.6,0,21.4,4,29.3,11.9
			c8,7.9,11.9,17.6,11.9,29.2c0,6-1.1,11.5-3.3,16.5C325.5,241.9,322.1,246.5,317.4,250.9L317.4,250.9z M312.6,244.8
			c6.8-6.7,10.2-14.8,10.2-24.5c0-6.2-1.5-11.8-4.3-16.8c-2.9-5-7-9-12.2-12c-5.3-3-10.8-4.5-16.6-4.5c-5.9,0-11.4,1.5-16.6,4.5
			s-9.2,7.1-12.2,12.2c-2.9,5.1-4.4,10.8-4.4,17.1c0,9.3,3.2,17.1,9.6,23.5s14.2,9.6,23.3,9.6c6.2,0,11.9-1.5,16.9-4.4l-17.6-22.2
			h9.7L312.6,244.8z"/>
		<polygon class="st13" points="344.1,181.3 388.9,181.3 388.9,188.9 352,188.9 352,213.4 388.5,213.4 388.5,221 352,221 352,251.8 
			388.5,251.8 388.5,259.4 344.1,259.4 		"/>
		<path class="st13" d="M403,259.4v-78.1h16.2c11.7,0,20.2,0.9,25.4,2.8c7.6,2.7,13.5,7.3,17.8,13.8c4.3,6.5,6.4,14.3,6.4,23.4
			c0,7.8-1.7,14.7-5.1,20.7c-3.4,5.9-7.8,10.4-13.2,13.2c-5.4,2.8-13,4.2-22.7,4.2L403,259.4L403,259.4z M410.5,252h9
			c10.8,0,18.2-0.7,22.4-2c5.9-1.9,10.5-5.4,13.8-10.3c3.4-5,5-11.1,5-18.2c0-7.5-1.8-14-5.5-19.3c-3.6-5.4-8.7-9-15.2-11
			c-4.9-1.5-12.9-2.2-24.1-2.2h-5.5v63H410.5z"/>
		<path class="st13" d="M293.5,307.3l-3.5,3.3c-2.5-2.4-5.2-4.3-8.2-5.6c-3-1.3-5.9-1.9-8.7-1.9c-3.5,0-6.8,0.9-10,2.6s-5.6,4-7.4,7
			c-1.7,2.9-2.6,6-2.6,9.3c0,3.4,0.9,6.5,2.7,9.6c1.8,3,4.3,5.4,7.5,7.1s6.7,2.6,10.4,2.6c4.6,0,8.5-1.3,11.7-3.9s5.1-5.9,5.6-10
			h-14.2V323H296c0,6.9-2.1,12.3-6.1,16.4c-4.1,4-9.5,6.1-16.3,6.1c-8.3,0-14.8-2.8-19.6-8.4c-3.7-4.3-5.6-9.3-5.6-15
			c0-4.2,1.1-8.1,3.2-11.8c2.1-3.6,5-6.5,8.7-8.5s7.9-3.1,12.6-3.1c3.8,0,7.4,0.7,10.7,2C287.1,302.1,290.3,304.3,293.5,307.3z"/>
		<path class="st13" d="M305.8,299.8h8.9c5,0,8.3,0.2,10.1,0.6c2.7,0.6,4.8,1.9,6.5,3.9s2.5,4.4,2.5,7.3c0,2.4-0.6,4.6-1.7,6.4
			s-2.8,3.2-4.9,4.2c-2.1,0.9-5.1,1.4-8.8,1.4l16,20.7h-5.5l-16-20.7h-2.6v20.7h-4.5V299.8L305.8,299.8z M310.3,304.1v15.1l7.7,0.1
			c3,0,5.2-0.3,6.6-0.8c1.4-0.6,2.5-1.5,3.4-2.7c0.8-1.2,1.2-2.6,1.2-4.2c0-1.5-0.4-2.9-1.2-4.1c-0.8-1.2-1.9-2.1-3.2-2.6
			c-1.3-0.5-3.5-0.8-6.6-0.8H310.3z"/>
		<path class="st13" d="M365.5,298.7c6.7,0,12.4,2.3,16.9,6.8s6.8,10,6.8,16.6c0,6.5-2.3,12.1-6.8,16.6s-10.1,6.8-16.6,6.8
			c-6.6,0-12.2-2.3-16.7-6.8s-6.8-10-6.8-16.4c0-4.3,1-8.2,3.1-11.9c2.1-3.7,4.9-6.5,8.5-8.6S361.4,298.7,365.5,298.7L365.5,298.7z
			 M365.7,303c-3.3,0-6.4,0.9-9.4,2.6c-2.9,1.7-5.3,4-6.9,6.9c-1.7,2.9-2.5,6.2-2.5,9.7c0,5.3,1.8,9.8,5.5,13.4
			c3.7,3.7,8.1,5.5,13.3,5.5c3.5,0,6.7-0.8,9.6-2.5s5.2-4,6.9-6.9c1.6-2.9,2.5-6.1,2.5-9.7c0-3.5-0.8-6.7-2.5-9.6
			c-1.6-2.9-4-5.1-7-6.9C372.3,303.9,369.1,303,365.7,303z"/>
		<path class="st13" d="M399.5,299.8h4.5v26.9c0,3.2,0.1,5.2,0.2,6c0.2,1.8,0.7,3.2,1.5,4.4c0.8,1.2,2,2.2,3.7,3s3.4,1.2,5.1,1.2
			c1.5,0,2.9-0.3,4.2-0.9c1.3-0.6,2.5-1.5,3.4-2.6s1.6-2.5,2-4c0.3-1.1,0.5-3.5,0.5-7v-26.9h4.5v26.9c0,4-0.4,7.2-1.2,9.6
			c-0.8,2.5-2.3,4.6-4.7,6.4c-2.3,1.8-5.2,2.7-8.5,2.7c-3.6,0-6.7-0.9-9.2-2.6c-2.6-1.7-4.3-4-5.2-6.8c-0.5-1.7-0.8-4.9-0.8-9.4
			V299.8z"/>
		<path class="st13" d="M440.9,299.8h8.9c5.1,0,8.5,0.2,10.3,0.7c2.5,0.6,4.6,1.9,6.2,3.9c1.6,1.9,2.4,4.4,2.4,7.3
			c0,3-0.8,5.4-2.4,7.3c-1.6,1.9-3.7,3.2-6.5,3.9c-2,0.5-5.8,0.7-11.3,0.7h-3.2v20.7h-4.5v-44.5H440.9z M445.4,304.1v15.1l7.6,0.1
			c3.1,0,5.3-0.3,6.7-0.8c1.4-0.6,2.5-1.4,3.3-2.7c0.8-1.2,1.2-2.6,1.2-4.2c0-1.5-0.4-2.9-1.2-4.1s-1.9-2.1-3.2-2.6
			s-3.5-0.8-6.5-0.8H445.4z"/>
		<path class="st14" d="M9.3,408.6h2.9l-0.4,3.3c2.5-2.6,5.4-3.9,8.7-3.9c3,0,5.4,1,7.4,2.9c1.9,1.9,2.9,4.4,2.9,7.4
			c0,3.5-1.2,6.5-3.7,9s-5.4,3.7-8.8,3.7c-1.8,0-3.4-0.4-4.8-1.1c-1.4-0.8-2.6-2-3.5-3.6l-1.6,12.2H5.5L9.3,408.6L9.3,408.6z
			 M20.1,410.6c-1.8,0-3.4,0.4-4.9,1.3s-2.7,2.1-3.5,3.7c-0.9,1.6-1.3,3.3-1.3,5.2c0,2.3,0.7,4.1,2.2,5.5c1.4,1.4,3.3,2.1,5.6,2.1
			c2.7,0,5-1,6.9-2.9s2.9-4.3,2.9-7.2c0-2.3-0.7-4.2-2.1-5.6C24.2,411.3,22.4,410.6,20.1,410.6z"/>
		<path class="st14" d="M41.2,408.6H44l-0.4,2.7c0.8-1,1.7-1.8,2.7-2.4c1.1-0.6,2.2-0.9,3.3-0.9c0.8,0,1.6,0.2,2.5,0.6l-1.3,2.6
			c-0.7-0.3-1.3-0.4-1.8-0.4c-1,0-2,0.3-2.9,1c-1,0.7-1.7,1.7-2.4,3c-0.6,1.3-1.1,3.5-1.5,6.4l-1.3,9.3h-2.7L41.2,408.6z"/>
		<path class="st14" d="M69.9,408c1.9,0,3.6,0.4,5.1,1.3c1.6,0.9,2.8,2.1,3.7,3.7s1.3,3.4,1.3,5.4c0,2.3-0.6,4.4-1.7,6.4
			c-1.1,2-2.6,3.5-4.5,4.5c-1.9,1.1-4,1.6-6.4,1.6c-3,0-5.4-1-7.3-2.9s-2.9-4.4-2.9-7.3c0-2.3,0.6-4.5,1.7-6.4
			c1.1-2,2.6-3.5,4.6-4.6C65.5,408.6,67.6,408,69.9,408L69.9,408z M69.9,410.7c-1.7,0-3.4,0.4-4.9,1.3s-2.7,2.1-3.5,3.6
			s-1.2,3.2-1.2,5c0,2.3,0.7,4.2,2.1,5.6s3.3,2.2,5.5,2.2c1.8,0,3.4-0.4,4.8-1.3c1.4-0.8,2.6-2,3.4-3.6s1.3-3.3,1.3-5.1
			c0-1.5-0.3-2.9-0.9-4c-0.6-1.2-1.5-2.1-2.7-2.7C72.5,411,71.2,410.7,69.9,410.7z"/>
		<polygon class="st14" points="89.6,408.6 92.5,408.6 98,424.6 107.3,408.6 110.3,408.6 97.7,430.5 97.2,430.5 		"/>
		<path class="st14" d="M122.1,399.6c0.6,0,1.1,0.2,1.6,0.7c0.4,0.4,0.7,1,0.7,1.6s-0.2,1.2-0.7,1.6c-0.4,0.4-1,0.7-1.6,0.7
			s-1.2-0.2-1.6-0.7c-0.4-0.4-0.7-1-0.7-1.6s0.2-1.1,0.7-1.6C121,399.8,121.5,399.6,122.1,399.6L122.1,399.6z M119.9,408.6h2.7
			l-2.9,21.9h-2.8L119.9,408.6z"/>
		<path class="st14" d="M134,408.6h2.7l-0.5,3.4c2.2-2.6,4.8-4,7.8-4c2.3,0,4.1,0.7,5.5,2.1s2.1,3.2,2.1,5.6c0,0.9-0.2,2.5-0.5,4.7
			l-1.4,10.1H147l1.4-10.1c0.3-2.1,0.4-3.7,0.4-4.7c0-1.5-0.5-2.8-1.4-3.7c-0.9-0.9-2.2-1.4-3.7-1.4s-2.9,0.4-4.1,1.1
			c-1.3,0.8-2.3,1.8-3,3.1c-0.7,1.3-1.2,3.4-1.6,6.2l-1.3,9.5H131L134,408.6z"/>
		<path class="st14" d="M183,408.6h2.8l-2.5,18.5c-0.4,3-0.9,5.1-1.5,6.3c-0.8,1.6-2.1,3-3.9,4.1c-1.8,1.1-4,1.6-6.5,1.6
			s-4.6-0.5-6.3-1.5s-3.1-2.5-4-4.4l2.5-0.9c1.5,2.8,4.1,4.2,7.8,4.2c1.9,0,3.6-0.4,5-1.2c1.4-0.8,2.4-1.8,3-3
			c0.4-0.7,0.7-2.3,1.1-4.8l0.1-0.9c-2.4,2.6-5.3,3.9-8.7,3.9c-3,0-5.4-0.9-7.3-2.8c-1.8-1.8-2.8-4.2-2.8-7.2c0-2.2,0.6-4.2,1.7-6.1
			c1.1-1.9,2.7-3.5,4.6-4.6c2-1.2,4-1.7,6-1.7c1.7,0,3.2,0.4,4.6,1.1c1.4,0.8,2.6,1.9,3.7,3.6L183,408.6L183,408.6z M174.7,410.7
			c-1.8,0-3.5,0.4-5.1,1.3s-2.8,2.1-3.7,3.6s-1.3,3.2-1.3,5c0,2.1,0.7,3.9,2,5.2c1.4,1.3,3.2,2,5.5,2c2.8,0,5.1-0.9,6.9-2.7
			c1.8-1.8,2.8-4.1,2.8-6.9c0-2.4-0.7-4.3-2.2-5.5C178.1,411.3,176.5,410.7,174.7,410.7z"/>
		<polygon class="st14" points="206.5,408.6 209.3,408.6 213.8,424 222,408.6 222.5,408.6 227.5,424.2 235.5,408.6 238.6,408.6 
			227.3,430.5 226.6,430.5 221.6,415 213.4,430.5 212.8,430.5 		"/>
		<path class="st14" d="M249.6,400.1h2.7l-1.6,11.9c2.3-2.6,4.9-4,7.8-4c2.2,0,4,0.7,5.5,2.1c1.4,1.4,2.1,3.2,2.1,5.4
			c0,1.2-0.1,2.9-0.4,4.9l-1.4,10.1h-2.7l1.4-10.1c0.3-2,0.4-3.6,0.4-4.8c0-1.5-0.5-2.7-1.4-3.6s-2.2-1.4-3.7-1.4
			c-1.4,0-2.8,0.4-4.1,1.1c-1.3,0.8-2.3,1.8-2.9,3.1c-0.7,1.3-1.2,3.4-1.6,6.2l-1.3,9.5h-2.7L249.6,400.1z"/>
		<path class="st14" d="M297.6,430.5h-2.8l0.4-3.3c-2.5,2.6-5.4,3.8-8.7,3.8c-3,0-5.4-1-7.3-2.9s-2.9-4.4-2.9-7.4
			c0-3.5,1.2-6.5,3.7-9s5.4-3.7,8.8-3.7c1.8,0,3.4,0.4,4.8,1.1c1.4,0.8,2.5,1.9,3.5,3.6l0.6-4.2h2.9L297.6,430.5L297.6,430.5z
			 M286.8,428.5c1.8,0,3.4-0.4,4.9-1.3s2.7-2.1,3.5-3.7c0.9-1.6,1.3-3.3,1.3-5.2c0-2.3-0.7-4.1-2.1-5.5s-3.3-2.1-5.6-2.1
			c-2.7,0-5,1-6.9,2.9s-2.9,4.3-2.9,7.2c0,2.3,0.7,4.2,2.1,5.6C282.7,427.7,284.5,428.5,286.8,428.5z"/>
		<polygon class="st14" points="315.8,400.4 318.5,400.4 317.4,408.6 321.8,408.6 321.5,411 317.1,411 314.5,430.5 311.7,430.5 
			314.3,411 310.6,411 310.9,408.6 314.7,408.6 		"/>
		<polygon class="st14" points="340.6,408.6 343.5,408.6 347.9,424 356.1,408.6 356.6,408.6 361.6,424.2 369.7,408.6 372.7,408.6 
			361.5,430.5 360.8,430.5 355.8,415 347.6,430.5 347,430.5 		"/>
		<path class="st14" d="M392.5,408c1.9,0,3.6,0.4,5.1,1.3c1.6,0.9,2.8,2.1,3.7,3.7c0.9,1.6,1.3,3.4,1.3,5.4c0,2.3-0.6,4.4-1.7,6.4
			s-2.6,3.5-4.5,4.5c-1.9,1.1-4,1.6-6.4,1.6c-2.9,0-5.4-1-7.3-2.9s-2.9-4.4-2.9-7.3c0-2.3,0.6-4.5,1.7-6.4c1.1-2,2.6-3.5,4.6-4.6
			C388.1,408.6,390.2,408,392.5,408L392.5,408z M392.4,410.7c-1.7,0-3.4,0.4-4.9,1.3s-2.7,2.1-3.5,3.6s-1.2,3.2-1.2,5
			c0,2.3,0.7,4.2,2.1,5.6s3.3,2.2,5.5,2.2c1.8,0,3.4-0.4,4.8-1.3c1.4-0.8,2.6-2,3.4-3.6s1.3-3.3,1.3-5.1c0-1.5-0.3-2.9-0.9-4
			c-0.6-1.2-1.5-2.1-2.7-2.7C395.1,411,393.8,410.7,392.4,410.7z"/>
		<path class="st14" d="M413.7,408.6h2.8l-0.4,2.7c0.8-1,1.7-1.8,2.7-2.4c1.1-0.6,2.2-0.9,3.3-0.9c0.8,0,1.6,0.2,2.5,0.6l-1.3,2.6
			c-0.7-0.3-1.3-0.4-1.8-0.4c-1,0-2,0.3-2.9,1c-1,0.7-1.7,1.7-2.4,3c-0.6,1.3-1.1,3.5-1.5,6.4l-1.3,9.3h-2.7L413.7,408.6z"/>
		<polygon class="st14" points="433.7,400.1 436.5,400.1 434.3,416.6 444.8,408.6 449.3,408.6 436.5,418.3 447.7,430.5 443.9,430.5 
			433.9,419.6 432.4,430.5 429.6,430.5 		"/>
		<path class="st14" d="M468.8,411.1l-1.5,2.3c-1.2-1.8-2.7-2.6-4.4-2.6c-1,0-1.8,0.3-2.5,0.9s-1,1.3-1,2.1c0,0.6,0.2,1.2,0.6,1.7
			s1.3,1.3,2.8,2.2c2.1,1.3,3.5,2.5,4.2,3.5s1,2.2,1,3.5c0,1.8-0.6,3.4-1.9,4.6c-1.3,1.2-3,1.8-5,1.8c-2.7,0-5-1.2-6.9-3.6l1.7-2
			c1.6,2,3.4,3,5.3,3c1.1,0,2-0.4,2.8-1.1c0.8-0.8,1.2-1.7,1.2-2.6c0-0.8-0.3-1.6-0.9-2.4c-0.4-0.5-1.4-1.3-3.1-2.4
			c-1.8-1.2-3.1-2.3-3.6-3.1c-0.6-0.8-0.9-1.7-0.9-2.8c0-1.6,0.6-3,1.8-4.2c1.2-1.1,2.8-1.7,4.6-1.7c1.1,0,2.1,0.2,3,0.7
			C467,409.1,467.9,409.9,468.8,411.1z"/>
		<g>
			<polygon class="st14" points="248.5,66.9 254.1,66.9 265.2,98.4 283.6,66.9 289.7,66.9 255.8,125.2 249.6,125.2 261.7,104.4 			
				"/>
			<path class="st14" d="M340.3,89.3h-38.1c-0.1,5.1,1.2,9.1,4,12c2.7,2.9,6.3,4.4,10.9,4.4c3,0,5.8-0.6,8.4-1.8s4.7-3,6.4-5.2
				l4.1,3.3c-2.1,2.6-4.8,4.8-8.1,6.3c-3.3,1.6-7,2.4-10.8,2.4c-6.7,0-11.7-2.1-15.1-6.2c-3.4-4.1-5.1-8.8-5.1-14
				c0-4.2,1.1-8.3,3.4-12.2s5.3-7,9.1-9.2c3.8-2.2,7.9-3.3,12.4-3.3c5.5,0,10,1.9,13.6,5.5c3.6,3.7,5.4,8.4,5.4,14.1
				C340.5,86.5,340.5,87.8,340.3,89.3L340.3,89.3z M335.2,84.5c-0.2-4-1.5-7.2-4.1-9.7s-5.9-3.7-9.8-3.7c-4.3,0-8,1.2-11.3,3.6
				c-3.3,2.4-5.6,5.7-6.9,9.9h32.1V84.5z"/>
			<path class="st14" d="M393.1,109.6h-5.5l0.9-6.5c-5,5-10.6,7.5-17,7.5c-5.8,0-10.5-1.9-14.3-5.6c-3.7-3.7-5.6-8.5-5.6-14.4
				c0-6.8,2.4-12.6,7.3-17.5s10.6-7.3,17.2-7.3c3.6,0,6.7,0.7,9.4,2.2c2.7,1.5,4.9,3.8,6.8,6.9l1.1-8.1h5.6L393.1,109.6L393.1,109.6
				z M372.1,105.7c3.5,0,6.7-0.8,9.6-2.5s5.2-4.1,6.9-7.2c1.7-3.1,2.5-6.5,2.5-10.2c0-4.4-1.4-8-4.2-10.8c-2.8-2.8-6.4-4.2-10.9-4.2
				c-5.2,0-9.7,1.9-13.4,5.7c-3.7,3.8-5.6,8.5-5.6,14c0,4.5,1.4,8.2,4.2,11C364,104.3,367.7,105.7,372.1,105.7z"/>
			<path class="st14" d="M414.8,66.9h5.4l-0.7,5.4c1.5-2,3.3-3.6,5.3-4.7c2.1-1.1,4.2-1.7,6.4-1.7c1.6,0,3.2,0.4,4.9,1.1l-2.6,5
				c-1.4-0.6-2.5-0.8-3.4-0.8c-1.9,0-3.8,0.7-5.7,2c-1.9,1.3-3.4,3.3-4.6,5.8s-2.2,6.7-3,12.6l-2.5,18.1H409L414.8,66.9z"/>
			<path class="st14" d="M468.8,71.7l-3,4.4c-2.4-3.4-5.3-5.2-8.6-5.2c-1.9,0-3.5,0.6-4.9,1.9c-1.3,1.2-2,2.6-2,4.1
				c0,1.2,0.4,2.3,1.2,3.3c0.8,1,2.6,2.5,5.4,4.3c4.1,2.6,6.8,4.9,8.1,6.9s1.9,4.3,1.9,6.9c0,3.6-1.2,6.6-3.8,8.9
				c-2.5,2.3-5.8,3.5-9.8,3.5c-5.3,0-9.8-2.3-13.4-7l3.4-3.9c3.2,3.9,6.6,5.8,10.3,5.8c2.1,0,4-0.7,5.5-2.2c1.6-1.5,2.4-3.2,2.4-5.2
				c0-1.6-0.6-3.1-1.8-4.6c-0.8-0.9-2.8-2.5-6.1-4.7c-3.6-2.4-6-4.5-7.1-6.1s-1.7-3.4-1.7-5.4c0-3.2,1.2-5.9,3.6-8.1
				c2.4-2.2,5.4-3.3,9-3.3c2.2,0,4.1,0.4,5.9,1.3C465.3,68,467,69.5,468.8,71.7z"/>
		</g>
	</g>
</g>
</svg>
